<svg preserveAspectRatio="none" overflow="visible" style="display: block;" width="24" height="24" viewBox="0 0 24 24" fill="none" xmlns="http://www.w3.org/2000/svg">
<g id="Group">
<path id="Path" fill-rule="evenodd" clip-rule="evenodd" d="M20 8H4C3.448 8 3 8.448 3 9V11C3 11.552 3.448 12 4 12H20C20.552 12 21 11.552 21 11V9C21 8.448 20.552 8 20 8Z" stroke="#050F19" stroke-width="1.5" stroke-linecap="round" stroke-linejoin="round"/>
<path id="Path_2" d="M12 21V8" stroke="#050F19" stroke-width="1.5" stroke-linecap="round" stroke-linejoin="round"/>
<g id="Group_2">
<path id="Path_3" d="M15.696 6.612C14.618 7.734 12.921 8 12.099 8" stroke="#050F19" stroke-width="1.5" stroke-linecap="round" stroke-linejoin="round"/>
<path id="Path_4" d="M12.099 8C12.099 8 11.605 4.884 12.82 3.62" stroke="#050F19" stroke-width="1.5" stroke-linecap="round" stroke-linejoin="round"/>
<path id="Path_5" d="M15.696 6.612C16.49 5.786 16.49 4.446 15.696 3.62C14.902 2.794 13.615 2.794 12.821 3.62" stroke="#050F19" stroke-width="1.5" stroke-linecap="round" stroke-linejoin="round"/>
<path id="Path_6" d="M8.304 6.612C9.382 7.734 11.079 8 11.901 8" stroke="#050F19" stroke-width="1.5" stroke-linecap="round" stroke-linejoin="round"/>
<path id="Path_7" d="M11.901 8C11.901 8 12.395 4.884 11.18 3.62" stroke="#050F19" stroke-width="1.5" stroke-linecap="round" stroke-linejoin="round"/>
<path id="Path_8" d="M8.304 6.612C7.51 5.786 7.51 4.446 8.304 3.62C9.098 2.794 10.385 2.794 11.179 3.62" stroke="#050F19" stroke-width="1.5" stroke-linecap="round" stroke-linejoin="round"/>
<path id="Path_9" d="M19 12V20C19 20.552 18.552 21 18 21H6C5.448 21 5 20.552 5 20V12" stroke="#050F19" stroke-width="1.5" stroke-linecap="round" stroke-linejoin="round"/>
</g>
<g id="Path_10">
</g>
</g>
</svg>
